/* XPM */
static char * background_xpm[] = {
"32 32 11 1",
" 	c #72751B",
".	c #7F8124",
"+	c #787B21",
"@	c #686F16",
"#	c #C6A740",
"$	c #A2783C",
"%	c #636917",
"&	c #BD9842",
"*	c #9CA8AD",
"=	c #B3B0A9",
"-	c #A2814F",
"                                ",
"                                ",
"                                ",
"                                ",
"                                ",
"                                ",
"       .                        ",
"      ++  ..+                   ",
"   +  +@ ++.                    ",
"    .+@  ++@                    ",
"    ++##++@+.                   ",
"     #$$#@++@                   ",
"     %##%@+@                    ",
"      %%  &&            ..    ++",
".+       &$$&            .++ .. ",
".++      %&&%         +..@+@++@ ",
"@++     ##%%           .++@@+** ",
" @@    #$#%            @+== +-* ",
"       ##%              =--= %% ",
"       %%               %==%    ",
"                         %%     ",
"                                ",
"              ..                ",
"         +  ++.                 ",
"         ..@++@                 ",
"         .++@@                  ",
"         @++                    ",
"                                ",
"                                ",
"                                ",
"                                ",
"                                "};
