/* XPM */
static char * c_xpm[] = {
"32 32 127 2",
"  	c #72751B",
". 	c #7F8124",
"+ 	c #787B21",
"@ 	c #686F16",
"# 	c #C6A740",
"$ 	c #6F721A",
"% 	c #686717",
"& 	c #A2783C",
"* 	c #616714",
"= 	c #6B6C18",
"- 	c #6C6C18",
"; 	c #877222",
"> 	c #997124",
", 	c #C58F3B",
"' 	c #D6832D",
") 	c #786C19",
"! 	c #636917",
"~ 	c #5E6112",
"{ 	c #EEB648",
"] 	c #E59F3D",
"^ 	c #E7A542",
"/ 	c #EAA33D",
"( 	c #E9A33E",
"_ 	c #D47E2B",
": 	c #F0AB40",
"< 	c #A77045",
"[ 	c #938160",
"} 	c #72741E",
"| 	c #BD9842",
"1 	c #A88539",
"2 	c #D77A29",
"3 	c #DD832E",
"4 	c #E69034",
"5 	c #F0C355",
"6 	c #EA9E3A",
"7 	c #F6B646",
"8 	c #ECA13B",
"9 	c #F6B948",
"0 	c #BB946D",
"a 	c #B09A78",
"b 	c #A17942",
"c 	c #9A5D22",
"d 	c #D8AB59",
"e 	c #E0BF83",
"f 	c #B4571D",
"g 	c #E5983E",
"h 	c #E5983A",
"i 	c #F9C14E",
"j 	c #F0AC42",
"k 	c #F0C256",
"l 	c #DAC3A1",
"m 	c #797325",
"n 	c #BAA479",
"o 	c #AB6127",
"p 	c #D1B079",
"q 	c #EFCE87",
"r 	c #EBBB58",
"s 	c #E6BA6C",
"t 	c #E3CAA2",
"u 	c #E9CFBD",
"v 	c #EEBF71",
"w 	c #F6D0A0",
"x 	c #E5CBA8",
"y 	c #9C946F",
"z 	c #9B987F",
"A 	c #E2BB9A",
"B 	c #E1A760",
"C 	c #BE6319",
"D 	c #CC7C30",
"E 	c #E1BB90",
"F 	c #D9B15F",
"G 	c #F2D281",
"H 	c #F3D98B",
"I 	c #C77F36",
"J 	c #ECD6BD",
"K 	c #9A957D",
"L 	c #9CA8AD",
"M 	c #989885",
"N 	c #FBF6EF",
"O 	c #F8E2CB",
"P 	c #E6B690",
"Q 	c #D7A079",
"R 	c #DD9065",
"S 	c #E29256",
"T 	c #B6631F",
"U 	c #E0C083",
"V 	c #D39657",
"W 	c #FAF3EC",
"X 	c #939385",
"Y 	c #B3B0A9",
"Z 	c #A2814F",
"` 	c #666817",
" .	c #EFEAE6",
"..	c #FBEFE1",
"+.	c #FBEEE1",
"@.	c #F6E8D8",
"#.	c #F7E0CC",
"$.	c #EBAC76",
"%.	c #EACFB4",
"&.	c #DF9F85",
"*.	c #D19B7B",
"=.	c #EFEAE7",
"-.	c #5C5E14",
";.	c #99947C",
">.	c #F9F7F3",
",.	c #FAE8D2",
"'.	c #FFFAF1",
").	c #FAEFE4",
"!.	c #FBEDE0",
"~.	c #FAE9D4",
"{.	c #F9F6F3",
"].	c #948F7B",
"^.	c #6E711A",
"/.	c #71741B",
"(.	c #888669",
"_.	c #ADAAA6",
":.	c #F5F2EF",
"<.	c #FCFBF8",
"[.	c #ADAAA8",
"}.	c #85846E",
"|.	c #6A6C18",
"1.	c #6C6F19",
"2.	c #535611",
"3.	c #545611",
"4.	c #565912",
"5.	c #696C18",
"6.	c #6D701A",
"                                                                ",
"                                                                ",
"                                                                ",
"                                                                ",
"                                                                ",
"                                                                ",
"              .                                                 ",
"            + +     . . +                                       ",
"      +     + @   + + .                                         ",
"        . + @     + + @                                         ",
"        + + # # + + @ + .         $ %                           ",
"          # & & # @ + + * = - ; > , ' )                         ",
"          ! # # ! @ + ~ { ] ^ / ( _ : < [ }                     ",
"            ! !     | 1 2 3 4 5 6 7 8 9 0 a     . .         + + ",
". +               | & b c d e f g h i j k l m     . + +   . .   ",
". + +             ! | n o p q r s t u v w x y . . @ + @ + + @   ",
"@ + +           # # ! z A B C D E F G H I J K . + + @ @ + L L   ",
"  @ @         # & # ! M N O P Q R S T U V W X @ + Y Y   + Z L   ",
"              # # !   `  ...+.@.#.$.%.&.*.=.-.  Y Z Z Y   ! !   ",
"              ! !       ;.>.,.'.).!.'.~.{.].^.  ! Y Y !         ",
"                        /.(._.:.<.<.:.[.}.|.      ! !           ",
"                            1.-.2.3.4.5.6.                      ",
"                            . .                                 ",
"                  +     + + .                                   ",
"                  . . @ + + @                                   ",
"                  . + + @ @                                     ",
"                  @ + +                                         ",
"                                                                ",
"                                                                ",
"                                                                ",
"                                                                ",
"                                                                "};
