/* XPM */
static char * door_xpm[] = {
"32 32 403 2",
"  	c #72751B",
". 	c #706D1E",
"+ 	c #706920",
"@ 	c #6E6720",
"# 	c #77593A",
"$ 	c #78593A",
"% 	c #684529",
"& 	c #78593B",
"* 	c #77593B",
"= 	c #765B38",
"- 	c #6D681D",
"; 	c #6D671E",
"> 	c #72741B",
", 	c #71731B",
"' 	c #6F552E",
") 	c #836949",
"! 	c #8D7454",
"~ 	c #6A492E",
"{ 	c #8C7251",
"] 	c #8B7150",
"^ 	c #886D4C",
"/ 	c #886C4C",
"( 	c #876C4C",
"_ 	c #816647",
": 	c #6F5033",
"< 	c #775A3C",
"[ 	c #674B28",
"} 	c #6C6121",
"| 	c #6E6123",
"1 	c #6C4A2E",
"2 	c #8B7252",
"3 	c #967F5F",
"4 	c #988161",
"5 	c #6C4D31",
"6 	c #886F50",
"7 	c #876E4E",
"8 	c #886F4F",
"9 	c #6C4D32",
"0 	c #866D4D",
"a 	c #806646",
"b 	c #7A5F42",
"c 	c #856B4D",
"d 	c #846A4C",
"e 	c #6A4A2D",
"f 	c #68492B",
"g 	c #6F6E1C",
"h 	c #706526",
"i 	c #856B4A",
"j 	c #765A3D",
"k 	c #8C7255",
"l 	c #806544",
"m 	c #684629",
"n 	c #7D6241",
"o 	c #785C3C",
"p 	c #7C6141",
"q 	c #69492B",
"r 	c #795E3C",
"s 	c #7E6241",
"t 	c #7B5E3D",
"u 	c #664427",
"v 	c #735639",
"w 	c #7C6142",
"x 	c #775B3F",
"y 	c #74563A",
"z 	c #66472A",
"A 	c #725236",
"B 	c #8E7656",
"C 	c #715235",
"D 	c #775A3A",
"E 	c #7F6544",
"F 	c #6B4A2D",
"G 	c #7D6141",
"H 	c #7D6243",
"I 	c #6D4D2E",
"J 	c #7C613F",
"K 	c #7A5E3C",
"L 	c #7C6242",
"M 	c #7B6040",
"N 	c #6F5335",
"O 	c #7E6344",
"P 	c #775A3D",
"Q 	c #83694B",
"R 	c #785D3D",
"S 	c #6E4F30",
"T 	c #7C6040",
"U 	c #816746",
"V 	c #806645",
"W 	c #6D4D2F",
"X 	c #7E6240",
"Y 	c #7A5E3D",
"Z 	c #765A3B",
"` 	c #7B6041",
" .	c #725537",
"..	c #795F3E",
"+.	c #7F6545",
"@.	c #836A4B",
"#.	c #775B3B",
"$.	c #6F5133",
"%.	c #7E6343",
"&.	c #6F4F30",
"*.	c #7F6444",
"=.	c #6F5031",
"-.	c #7B5F3E",
";.	c #7A6040",
">.	c #735739",
",.	c #7A5F3E",
"'.	c #755A3A",
").	c #765A3A",
"!.	c #705334",
"~.	c #7E6243",
"{.	c #7F6443",
"].	c #705133",
"^.	c #7E6442",
"/.	c #7E6341",
"(.	c #7B603F",
"_.	c #7B6140",
":.	c #74583A",
"<.	c #787B21",
"[.	c #6E4F32",
"}.	c #6F5032",
"|.	c #6B4B2D",
"1.	c #755839",
"2.	c #76593B",
"3.	c #775C45",
"4.	c #6E4F31",
"5.	c #7A5F40",
"6.	c #725435",
"7.	c #7F6442",
"8.	c #7B603E",
"9.	c #715234",
"0.	c #755A44",
"a.	c #735638",
"b.	c #6D4F32",
"c.	c #715536",
"d.	c #715335",
"e.	c #7F8124",
"f.	c #7A6852",
"g.	c #7D6B56",
"h.	c #7F6E59",
"i.	c #82705B",
"j.	c #82705C",
"k.	c #83735E",
"l.	c #6F5139",
"m.	c #715435",
"n.	c #7E6342",
"o.	c #7D6341",
"p.	c #795D3D",
"q.	c #836F5C",
"r.	c #7E6D58",
"s.	c #816F5B",
"t.	c #7B6A54",
"u.	c #7B6954",
"v.	c #7B6A55",
"w.	c #735D46",
"x.	c #75624C",
"y.	c #786650",
"z.	c #7C6B55",
"A.	c #7D6C56",
"B.	c #745E4A",
"C.	c #75583A",
"D.	c #795E3F",
"E.	c #7D6242",
"F.	c #74573B",
"G.	c #796752",
"H.	c #7A6953",
"I.	c #786751",
"J.	c #73604A",
"K.	c #72604A",
"L.	c #C6A740",
"M.	c #57321B",
"N.	c #58331B",
"O.	c #5A351D",
"P.	c #6E5843",
"Q.	c #6D4D30",
"R.	c #7B5F3F",
"S.	c #5E3C21",
"T.	c #6C5640",
"U.	c #59351C",
"V.	c #59341C",
"W.	c #58341C",
"X.	c #636917",
"Y.	c #715436",
"Z.	c #68482C",
"`.	c #765A3C",
" +	c #785C3D",
".+	c #785D3F",
"++	c #725437",
"@+	c #7E6443",
"#+	c #7A5F3F",
"$+	c #735738",
"%+	c #6B4C2F",
"&+	c #775B3D",
"*+	c #725638",
"=+	c #715637",
"-+	c #735838",
";+	c #745839",
">+	c #6D4F31",
",+	c #795F40",
"'+	c #755A3B",
")+	c #785D3E",
"!+	c #715437",
"~+	c #7D6240",
"{+	c #765B3C",
"]+	c #795F3F",
"^+	c #725738",
"/+	c #6E5032",
"(+	c #7B5F40",
"_+	c #74573A",
":+	c #775D3D",
"<+	c #7B6141",
"[+	c #7D6342",
"}+	c #7C6140",
"|+	c #7A5E3E",
"1+	c #785E3E",
"2+	c #785F3E",
"3+	c #725538",
"4+	c #765B3B",
"5+	c #775B3C",
"6+	c #765B3D",
"7+	c #705336",
"8+	c #775C3D",
"9+	c #725637",
"0+	c #715537",
"a+	c #686F16",
"b+	c #7A5E3F",
"c+	c #75593A",
"d+	c #6F5236",
"e+	c #705743",
"f+	c #715743",
"g+	c #705642",
"h+	c #765B3A",
"i+	c #785E3C",
"j+	c #775C3C",
"k+	c #705436",
"l+	c #9CA8AD",
"m+	c #6E5133",
"n+	c #63432C",
"o+	c #786852",
"p+	c #776650",
"q+	c #77654F",
"r+	c #6C4D30",
"s+	c #785D3C",
"t+	c #6F5234",
"u+	c #B3B0A9",
"v+	c #A2814F",
"w+	c #5C3B25",
"x+	c #735F4A",
"y+	c #5C3E2A",
"z+	c #715D47",
"A+	c #66472C",
"B+	c #6E5033",
"C+	c #6E5134",
"D+	c #785E3F",
"E+	c #6C4E31",
"F+	c #74593A",
"G+	c #5A3921",
"H+	c #684F38",
"I+	c #674E37",
"J+	c #664D36",
"K+	c #6D5033",
"L+	c #5F3C24",
"M+	c #603E25",
"N+	c #64442A",
"O+	c #634127",
"P+	c #7D6956",
"Q+	c #6A4B2E",
"R+	c #735839",
"S+	c #634327",
"T+	c #5B381E",
"U+	c #644428",
"V+	c #7D6856",
"W+	c #644229",
"X+	c #613E26",
"Y+	c #5F3D25",
"Z+	c #5E3C24",
"`+	c #76634E",
" @	c #786752",
".@	c #7B6A56",
"+@	c #7E6E5A",
"@@	c #80705B",
"#@	c #7B6B56",
"$@	c #76614E",
"%@	c #684A2D",
"&@	c #6E5137",
"*@	c #81705D",
"=@	c #7C6B57",
"-@	c #776550",
";@	c #776551",
">@	c #776651",
",@	c #6A543F",
"'@	c #6D5944",
")@	c #705C47",
"!@	c #715E4B",
"~@	c #73604B",
"{@	c #5D402C",
"]@	c #725739",
"^@	c #67492D",
"/@	c #6C5032",
"(@	c #6A5540",
"_@	c #73624C",
":@	c #6F5C48",
"<@	c #6C5843",
"[@	c #6C5842",
"}@	c #5C381D",
"|@	c #5E3C20",
"1@	c #5A371E",
"2@	c #5F3F23",
"3@	c #614025",
"4@	c #5E422D",
"5@	c #624227",
"6@	c #66482C",
"7@	c #6E5233",
"8@	c #614126",
"9@	c #5B3E29",
"0@	c #5E3C22",
"a@	c #5C3A21",
"b@	c #5D3B21",
"c@	c #5D381D",
"d@	c #65462A",
"e@	c #6E5335",
"f@	c #6F5436",
"g@	c #6C4F32",
"h@	c #644429",
"i@	c #624228",
"j@	c #6F5435",
"k@	c #6B4E30",
"l@	c #6B4D31",
"m@	c #6B4C31",
"n@	c #6D5032",
"o@	c #66472B",
"p@	c #6D5134",
"q@	c #6E5235",
"r@	c #5C3C23",
"s@	c #6E5234",
"t@	c #694C2F",
"u@	c #694B30",
"v@	c #6A4B30",
"w@	c #68513C",
"x@	c #6B523E",
"y@	c #6B5440",
"z@	c #6C5542",
"A@	c #6B5541",
"B@	c #6A5441",
"C@	c #6B5543",
"D@	c #6C594A",
"E@	c #5A3E2D",
"F@	c #6E5C4B",
"G@	c #6D5745",
"H@	c #6C5643",
"I@	c #6C5543",
"J@	c #695340",
"K@	c #685240",
"L@	c #67513F",
"M@	c #66503F",
"N@	c #7F725F",
"O@	c #80725F",
"P@	c #807360",
"Q@	c #827462",
"R@	c #867867",
"S@	c #877968",
"T@	c #8E816F",
"U@	c #665040",
"V@	c #8D7F6E",
"W@	c #7F705E",
"X@	c #7F705D",
"Y@	c #66523F",
"Z@	c #675240",
"`@	c #6A5743",
" #	c #6B5844",
".#	c #6C5945",
"+#	c #6B5946",
"@#	c #6C5A48",
"##	c #71614F",
"$#	c #5B402F",
"%#	c #6E5D49",
"&#	c #6D5C48",
"*#	c #6C5B47",
"=#	c #6B5945",
"-#	c #695542",
";#	c #695541",
">#	c #654F3C",
",#	c #654F3D",
"'#	c #675440",
")#	c #695743",
"!#	c #6A5844",
"~#	c #6C5A46",
"{#	c #6C5A47",
"]#	c #6C5B49",
"^#	c #726351",
"/#	c #5B412F",
"(#	c #6F5E4A",
"_#	c #6D5D49",
":#	c #6D5C49",
"<#	c #6B5845",
"[#	c #695643",
"}#	c #6A5642",
"|#	c #68533F",
"1#	c #553B18",
"2#	c #553B19",
"3#	c #563C1B",
"4#	c #543916",
"5#	c #543B19",
"6#	c #543B18",
"                    . + @ # # $ % & * = - ; >                   ",
"                , ' ) ! ~ { ] ^ ~ / ( _ : < [ } ,               ",
"              | 1 2 3 4 5 6 7 8 9 7 0 a b c d e f g             ",
"            h i j k ) l m n o p q r s t u v w x y z             ",
"            A B C D ) E F G G H I J s K < L M N O P             ",
"            Q R S T U V W p p H S X X Y Z ` M  ...+.            ",
"            @.#.$.%.l l &.M M *.=.X n -.Z M ;.>.,.,.            ",
"            '.).!.~.*.l S M M {.].^./.(.Z _.;.:.,.,.            ",
"      <.    [.}.|.1.2.3.4.5.5.%.6.7./.8.9.0.a.b.c.d.            ",
"        e.<.f.g.h.i.j.k.l.5.5.%.m.n.o.p.q.r.s.t.u.v.            ",
"        <.<.w.x.y.u.z.A.B.C.D.E.d.n.o.F.G.H.I.J.J.K.            ",
"          L.M.N.N.O.O.P.Q.D.D.E.d.^.n R.S.T.U.V.W.W.            ",
"          X.Y.Y.Z.`. +Z.: .+.+w ++@+n #+$+%+&+*+=+c.            ",
"            -+;+>+5.,+'+4.)+)+p !+^.~+..{+]+]+;+$+^+        <.<.",
"e.<.        $+$+/+(+ +_+4.R :+<+!+[+}+|+&+1+2+$+*+3+<.<.  e.e.  ",
"e.<.<.      ^+$+/+5.4+5+$.6+6+` 7+E._...8+:+:+9+0+0+<.a+<.<.a+  ",
"a+<.<.      *+a./+b+c+)./+Z d+e+f+g+h+i+ +j+:+ .Y.k+a+a+<.l+l+  ",
"  a+a+      9+9+m+D.:.$+b.`.n+o+p+q+r+s+8+4+4+t+N N u+  <.v+l+  ",
"            =+9+m+)+9+$+b.Z w+x+y+z+A+c+5+).Z B+C+C+v+u+  X.X.  ",
"            0+=+m+D+9+t+E+F+G+H+I+J+A+a.Z $+4+K+C+C+u+X.        ",
"            L+M+M+N+O+P+Q+R+N S+T+U+$+^+Z.V+W+X+Y+Z+X.          ",
"            `+ @.@+@@@#@$@m+R+R+%@:.R+&@*@p+=@-@;@>@            ",
"            ,@'@)@!@~@p+{@0+]@]@^@^+$+/@(@_@:@<@[@[@            ",
"            }@|@1@2@3@4@5@9+c.^+6@0+c.7@8@9@0@a@b@c@            ",
"            m+/+d@e@f@g@h@c.c.c.i@j@N K+N t+h+k@l@m@            ",
"            n@n@o@p@q@q@5@N N N r@s@p@g@C+:.;+t@u@v@            ",
"            w@x@y@y@y@z@A@B@C@D@E@F@G@H@I@B@J@K@L@M@            ",
"            N@O@O@O@P@Q@R@R@S@T@U@V@R@R@Q@O@O@O@W@X@            ",
"            Y@Y@Y@Z@`@ #.#+#@###$#%#&#*#*#=#-#;#>#>#            ",
"            ,#'#)#)#!#=#~#{#]#^#/#(#_#:#&#<#!#[#}#|#            ",
"            1#1#1#1#1#1#2#2#2#3#4#2#2#2#2#5#6#6#6#6#            ",
"                                                                "};
