/* XPM */
static char * man2_xpm[] = {
"32 32 22 1",
" 	c #72751B",
".	c #252716",
"+	c #5F5625",
"@	c #928230",
"#	c #141412",
"$	c #373A20",
"%	c #7F8124",
"&	c #787B21",
"*	c #0C98D6",
"=	c #331E32",
"-	c #1C3845",
";	c #C6A740",
">	c #636917",
",	c #5F2E5C",
"'	c #932D8B",
")	c #686F16",
"!	c #9CA8AD",
"~	c #B3B0A9",
"{	c #A2814F",
"]	c #47280D",
"^	c #B56C30",
"/	c #F09A53",
"                                ",
"             .......            ",
"           ..+@@@@++#           ",
"          .+@@@@@@@@+#          ",
"         #++@@@@@@@@@+#         ",
"        #$$$+@@@+##+@@#         ",
"       %#$$$$+@#####+@#         ",
"      &#$$$$$@#######@#         ",
"   &  &#$$$$+@#######@#         ",
"    %&#$$$$$@###*##*#+#         ",
"    &&#$+++$@=##-##-#+#         ",
"     ;##$+++@=#######$#         ",
"     >;###$$+=,=#####=#         ",
"      >#$$$$++,,,'''',# %%    &&",
"%&     .@@@$$+@,,'''',## %&& %% ",
"%&&   .@@@@@++@@@@++@@##%)&)&&) ",
")&&   .@@@@@+++@@@@@@@##&&))&!! ",
" ))   .+@@@+$$$@@@@@@@##&~~ &{! ",
"       ....#$$$+@@@@@+# ~{{~ >> ",
"       >>###$$$$######  >~~>    ",
"          ]]^]^^^//^^#   >>     ",
"          ]]^]^^////^#          ",
"         .+++++++//^$$#         ",
"         .@@@@@@+##+++#         ",
"        .+@@@@@@$##++++#        ",
"        .@@@@@@$###++++#        ",
"       ##@@@@@@# ###+++#        ",
"       #########  ######        ",
"       #^^^##      #]]]#        ",
"      ##]]]#       ######       ",
"      #///##       #]^^^#       ",
"                                "};
