/* XPM */
static char * mur_xpm[] = {
"32 32 70 1",
" 	c #5F554C",
".	c #5F554B",
"+	c #5E544A",
"@	c #5D544A",
"#	c #4F3626",
"$	c #5D5349",
"%	c #5C5247",
"&	c #5D5248",
"*	c #5D5348",
"=	c #5E5349",
"-	c #5E5449",
";	c #655F57",
">	c #5A4537",
",	c #676159",
"'	c #5A4739",
")	c #52311D",
"!	c #594435",
"~	c #5A4436",
"{	c #5A4536",
"]	c #5E5146",
"^	c #5F5349",
"/	c #584132",
"(	c #543725",
"_	c #53321F",
":	c #543726",
"<	c #543826",
"[	c #543827",
"}	c #706C63",
"|	c #6D685F",
"1	c #6C675F",
"2	c #543624",
"3	c #5D4D42",
"4	c #563B2B",
"5	c #615851",
"6	c #573E2E",
"7	c #5A4538",
"8	c #533320",
"9	c #5D4E42",
"0	c #594537",
"a	c #573D2E",
"b	c #5C4C40",
"c	c #5B4A3D",
"d	c #5B493C",
"e	c #5B483B",
"f	c #76726C",
"g	c #543625",
"h	c #69645C",
"i	c #6D6861",
"j	c #665F58",
"k	c #584031",
"l	c #583F31",
"m	c #5C4B3F",
"n	c #5C4C41",
"o	c #5B493D",
"p	c #573E2F",
"q	c #5B473A",
"r	c #5A473A",
"s	c #5A463A",
"t	c #5A4639",
"u	c #5C4D41",
"v	c #543623",
"w	c #563C2C",
"x	c #62554B",
"y	c #553826",
"z	c #573D2D",
"A	c #563B2A",
"B	c #56321C",
"C	c #77756A",
"D	c #767469",
"E	c #4F2913",
"  .++++@@#$%%%%%%%&&&&********=-",
";;;;;;;;;>,,,,,,,,,,,,,,,,,,,,,,",
";;;;;;;;;',,,,,,,,,,,,,,,,,,,,,,",
")!!!!!~{{{{]]]]]]]^^^//(_(((:<([",
"}}||||||||||||||||11111123333333",
",,,,,,,,,,,,,,,,,,,,,,,,43555555",
",,,,,,,,,,,,,,,,,,,,,,,,65555555",
",,,,,,,,,,,,,,,,,,,,,,,,>5555555",
",,,,,,,,,,,,,,,,,,,,,,,,75555555",
",,,,,,,,,,,,,,,,,,,,,,,,^5555555",
",,,,,,,,,,,,,,,,,,,,,,,,^5555555",
",,,,,,,,,,,,,,,,,,,,,,,,^5555555",
"833339990a444bcdde^^^^^^^^^^^^^^",
"ffffffffffg11111hh11111111111111",
"iiiiiiiiiigjjjjjjjjjjjjjjjjjjjjj",
"iiiiiiiiiiajjjjjjjjjjjjjjjjjjjjj",
"iiiiiiiiiikjjjjjjjjjjjjjjjjjjjjj",
"iiiiiiiiiiljjjjjjjjjjjjjjjjjjjjj",
"iiiiiiiiiimjjjjjjjjjjjjjjjjjjjjj",
"iiiiiiiiiinjjjjjjjjjjjjjjjjjjjjj",
"iiiiiiiiiomjjjjjjjjjjjjjjjjjjjjj",
"pppqrstt9bb^^^^^^^uu3^//vw/^^^^^",
"xxxxxxxxxx11111111111111y1111111",
"jjjjjjjjjjjjjjjjjjjjjjjjzjjjjjjj",
"jjjjjjjjjjjjjjjjjjjjjjjj^jjjjjjj",
"jjjjjjjjjjjjjjjjjjjjjjjj^jjjjjjj",
"jjjjjjjjjjjjjjjjjjjjjjjj^jjjjjjj",
"jjjjjjjjjjjjjjjjjjjjjjjj^jjjjjjj",
"jjjjjjjjjjjjjjjjjjjjjjjj/jjjjjjj",
"jjjjjjjjjjjjjjjjjjjjjjjjAjjjjjjj",
"BBBBBBBjBBBBBBBBBBBBBBBBBBBBjBBB",
"CCCCDDDEDDDDDDDDDDDDDDDDDDDDBDDD"};
